<mxfile host="65bd71144e">
    <diagram id="hK1bAc9mpU-AfDvGt_9T" name="Page-1">
        <mxGraphModel dx="857" dy="708" grid="1" gridSize="10" guides="1" tooltips="1" connect="1" arrows="1" fold="1" page="1" pageScale="1" pageWidth="827" pageHeight="1169" math="0" shadow="0">
            <root>
                <mxCell id="0"/>
                <mxCell id="1" parent="0"/>
                <mxCell id="86" style="edgeStyle=none;html=1;exitX=1;exitY=1;exitDx=0;exitDy=0;" parent="1" source="44" edge="1">
                    <mxGeometry relative="1" as="geometry">
                        <mxPoint x="450.33333333333337" y="260.16666666666674" as="targetPoint"/>
                    </mxGeometry>
                </mxCell>
                <mxCell id="44" value="&lt;p style=&quot;margin:0px;margin-top:4px;text-align:center;&quot;&gt;&lt;b&gt;Bulletin Board&lt;/b&gt;&lt;/p&gt;&lt;hr size=&quot;1&quot;&gt;&lt;div style=&quot;height:2px;&quot;&gt;&lt;/div&gt;&lt;hr size=&quot;1&quot;&gt;&lt;div style=&quot;height:2px;&quot;&gt;&lt;/div&gt;" style="verticalAlign=top;align=left;overflow=fill;fontSize=12;fontFamily=Helvetica;html=1;" parent="1" vertex="1">
                    <mxGeometry x="220" y="10" width="450" height="490" as="geometry"/>
                </mxCell>
                <mxCell id="94" value="" style="html=1;entryX=0;entryY=0.5;entryDx=0;entryDy=0;movable=1;resizable=1;rotatable=1;deletable=1;editable=1;connectable=1;endArrow=none;endFill=0;exitX=0.5;exitY=0.5;exitDx=0;exitDy=0;exitPerimeter=0;" parent="1" source="47" target="83" edge="1">
                    <mxGeometry relative="1" as="geometry"/>
                </mxCell>
                <object label="Faculty" Lecturer="" id="47">
                    <mxCell style="shape=umlActor;verticalLabelPosition=bottom;verticalAlign=top;html=1;" parent="1" vertex="1">
                        <mxGeometry x="30" y="65" width="30" height="60" as="geometry"/>
                    </mxCell>
                </object>
                <mxCell id="83" value="Post Message" style="ellipse;whiteSpace=wrap;html=1;" parent="1" vertex="1">
                    <mxGeometry x="274" y="60" width="140" height="70" as="geometry"/>
                </mxCell>
                <mxCell id="84" value="View Message" style="ellipse;whiteSpace=wrap;html=1;" parent="1" vertex="1">
                    <mxGeometry x="274" y="330" width="140" height="70" as="geometry"/>
                </mxCell>
                <mxCell id="85" value="Student" style="shape=umlActor;verticalLabelPosition=bottom;verticalAlign=top;html=1;" parent="1" vertex="1">
                    <mxGeometry x="750" y="380" width="30" height="60" as="geometry"/>
                </mxCell>
                <mxCell id="87" value="View all Message Links" style="ellipse;whiteSpace=wrap;html=1;" parent="1" vertex="1">
                    <mxGeometry x="274" y="420" width="140" height="70" as="geometry"/>
                </mxCell>
                <mxCell id="95" value="" style="html=1;movable=1;resizable=1;rotatable=1;deletable=1;editable=1;connectable=1;endArrow=none;endFill=0;exitX=0.5;exitY=0.5;exitDx=0;exitDy=0;exitPerimeter=0;entryX=1;entryY=0.5;entryDx=0;entryDy=0;" parent="1" source="85" target="84" edge="1">
                    <mxGeometry relative="1" as="geometry">
                        <mxPoint x="70" y="190" as="sourcePoint"/>
                        <mxPoint x="210" y="205" as="targetPoint"/>
                    </mxGeometry>
                </mxCell>
                <mxCell id="96" value="" style="html=1;movable=1;resizable=1;rotatable=1;deletable=1;editable=1;connectable=1;endArrow=none;endFill=0;entryX=0;entryY=0;entryDx=0;entryDy=0;exitX=0.5;exitY=0.5;exitDx=0;exitDy=0;exitPerimeter=0;" parent="1" source="47" target="84" edge="1">
                    <mxGeometry relative="1" as="geometry">
                        <mxPoint x="70" y="90" as="sourcePoint"/>
                        <mxPoint x="220" y="115" as="targetPoint"/>
                    </mxGeometry>
                </mxCell>
                <mxCell id="97" value="" style="html=1;movable=1;resizable=1;rotatable=1;deletable=1;editable=1;connectable=1;endArrow=none;endFill=0;entryX=0;entryY=0;entryDx=0;entryDy=0;exitX=0.5;exitY=0.5;exitDx=0;exitDy=0;exitPerimeter=0;" parent="1" source="47" target="87" edge="1">
                    <mxGeometry relative="1" as="geometry">
                        <mxPoint x="60" y="80" as="sourcePoint"/>
                        <mxPoint x="240.50252531694184" y="190.25126265847086" as="targetPoint"/>
                    </mxGeometry>
                </mxCell>
                <mxCell id="98" value="" style="html=1;movable=1;resizable=1;rotatable=1;deletable=1;editable=1;connectable=1;endArrow=none;endFill=0;exitX=0.5;exitY=0.5;exitDx=0;exitDy=0;exitPerimeter=0;entryX=1;entryY=0.5;entryDx=0;entryDy=0;" parent="1" source="85" target="87" edge="1">
                    <mxGeometry relative="1" as="geometry">
                        <mxPoint x="65.00000000000006" y="200" as="sourcePoint"/>
                        <mxPoint x="220" y="215" as="targetPoint"/>
                    </mxGeometry>
                </mxCell>
                <mxCell id="99" value="Delete Message" style="ellipse;whiteSpace=wrap;html=1;" parent="1" vertex="1">
                    <mxGeometry x="274" y="240" width="140" height="70" as="geometry"/>
                </mxCell>
                <mxCell id="100" value="Upload Content" style="ellipse;whiteSpace=wrap;html=1;" parent="1" vertex="1">
                    <mxGeometry x="274" y="150" width="140" height="70" as="geometry"/>
                </mxCell>
                <mxCell id="102" value="" style="html=1;entryX=0;entryY=0.5;entryDx=0;entryDy=0;movable=1;resizable=1;rotatable=1;deletable=1;editable=1;connectable=1;endArrow=none;endFill=0;exitX=0.5;exitY=0.5;exitDx=0;exitDy=0;exitPerimeter=0;" parent="1" source="47" target="99" edge="1">
                    <mxGeometry relative="1" as="geometry">
                        <mxPoint x="10" y="80" as="sourcePoint"/>
                        <mxPoint x="270" y="105" as="targetPoint"/>
                    </mxGeometry>
                </mxCell>
                <mxCell id="103" value="" style="html=1;entryX=0;entryY=0.5;entryDx=0;entryDy=0;movable=1;resizable=1;rotatable=1;deletable=1;editable=1;connectable=1;endArrow=none;endFill=0;exitX=0.5;exitY=0.5;exitDx=0;exitDy=0;exitPerimeter=0;" parent="1" source="47" target="100" edge="1">
                    <mxGeometry relative="1" as="geometry">
                        <mxPoint x="65" y="90" as="sourcePoint"/>
                        <mxPoint x="270" y="105" as="targetPoint"/>
                    </mxGeometry>
                </mxCell>
                <mxCell id="104" value="Store Messages" style="ellipse;whiteSpace=wrap;html=1;" vertex="1" parent="1">
                    <mxGeometry x="510" y="150" width="140" height="70" as="geometry"/>
                </mxCell>
                <mxCell id="108" value="&amp;lt;&amp;lt; include &amp;gt;&amp;gt;" style="text;html=1;align=center;rotation=15;" vertex="1" parent="1">
                    <mxGeometry x="360" y="105" width="204" height="25" as="geometry"/>
                </mxCell>
                <mxCell id="110" value="&amp;lt;&amp;lt; include &amp;gt;&amp;gt;" style="text;html=1;align=center;rotation=0;" vertex="1" parent="1">
                    <mxGeometry x="370" y="172.5" width="184" height="25" as="geometry"/>
                </mxCell>
                <mxCell id="111" value="&amp;lt;&amp;lt; include &amp;gt;&amp;gt;" style="text;html=1;align=center;rotation=-20;" vertex="1" parent="1">
                    <mxGeometry x="380" y="230" width="184" height="25" as="geometry"/>
                </mxCell>
                <mxCell id="112" value="&amp;lt;&amp;lt; include &amp;gt;&amp;gt;" style="text;html=1;align=center;rotation=0;" vertex="1" parent="1">
                    <mxGeometry x="360" y="322.5" width="184" height="25" as="geometry"/>
                </mxCell>
                <mxCell id="114" value="" style="edgeStyle=none;html=1;" edge="1" parent="1" source="113" target="104">
                    <mxGeometry relative="1" as="geometry"/>
                </mxCell>
                <mxCell id="113" value="Read Messages" style="ellipse;whiteSpace=wrap;html=1;" vertex="1" parent="1">
                    <mxGeometry x="510" y="300" width="140" height="70" as="geometry"/>
                </mxCell>
                <mxCell id="115" value="&amp;lt;&amp;lt; include &amp;gt;&amp;gt;" style="text;html=1;align=center;rotation=-25;" vertex="1" parent="1">
                    <mxGeometry x="370" y="400" width="184" height="25" as="geometry"/>
                </mxCell>
            </root>
        </mxGraphModel>
    </diagram>
</mxfile>